  0
SECTION
  2
HEADER
  9
$ANGBASE
  50
0.0
  9
$ANGDIR
  70
1
  9
$MEASUREMENT
  70
1
  0
ENDSEC
  0
SECTION
  2
TABLES
  0
TABLE
  2
LTYPE
  70
4
  0
LTYPE
  5
40F
  2
CONTINUOUS
  70
0
  3
Solid line
  72
65
  73
0
  40
0.0
  0
LTYPE
  5
410
  2
DASHDOT
 70
0
  3
Dash Dot ____ _ ____ _
 72
65
 73
4
 40
2.0
 49
1.25
 49
-0.25
 49
0.25
 49
-0.25
  0
LTYPE
  5
411
  2
DASHED
 70
0
  3
Dashed __ __ __ __ __
 72
65
 73
2
 40
0.75
 49
0.5
 49
-0.25
  0
LTYPE
  5
43B
  2
DOTTED
 70
0
  3
Dotted .  .  .  .
 72
65
 73
2
 40
0.2
 49
0.0
 49
-0.2
  0
ENDTAB
  0
TABLE
  2
STYLE
  70
4
  0
STYLE
  2
KICAD
  70
0
  40
0
  41
1
  42
1
  50
0
  71
0
  3
isocp.shx
  0
STYLE
  2
KICADB
  70
0
  40
0
  41
1
  42
1
  50
0
  71
0
  3
isocp.shx
  0
STYLE
  2
KICADI
  70
0
  40
0
  41
1
  42
1
  50
15
  71
0
  3
isocp.shx
  0
STYLE
  2
KICADBI
  70
0
  40
0
  41
1
  42
1
  50
15
  71
0
  3
isocp.shx
  0
ENDTAB
  0
TABLE
  2
LAYER
  70
1
  0
LAYER
  2
BLACK
  70
0
  62
7
  6
CONTINUOUS
  0
ENDTAB
  0
ENDSEC
  0
SECTION
  2
ENTITIES
0
LINE
8
BLACK
6
CONTINUOUS
10
180.25
20
-96.85
11
180.25
21
-95.55
0
LINE
8
BLACK
6
CONTINUOUS
10
180.25
20
-95.55
11
191.6
21
-95.55
0
LINE
8
BLACK
6
CONTINUOUS
10
191.6
20
-95.55
11
192.9
21
-95.55
0
LINE
8
BLACK
6
CONTINUOUS
10
192.9
20
-95.55
11
196.6
21
-95.55
0
LINE
8
BLACK
6
CONTINUOUS
10
196.6
20
-95.55
11
196.6
21
-79.2
0
LINE
8
BLACK
6
CONTINUOUS
10
196.6
20
-79.2
11
197.9
21
-79.2
0
LINE
8
BLACK
6
CONTINUOUS
10
197.9
20
-79.2
11
197.9
21
-95.55
0
LINE
8
BLACK
6
CONTINUOUS
10
197.9
20
-95.55
11
197.9
21
-100.85
0
LINE
8
BLACK
6
CONTINUOUS
10
197.9
20
-100.85
11
197.25
21
-100.85
0
LINE
8
BLACK
6
CONTINUOUS
10
197.25
20
-100.85
11
196.6
21
-100.85
0
LINE
8
BLACK
6
CONTINUOUS
10
196.6
20
-100.85
11
193.5
21
-100.85
0
LINE
8
BLACK
6
CONTINUOUS
10
193.5
20
-100.85
11
192.55
21
-100.85
0
LINE
8
BLACK
6
CONTINUOUS
10
192.55
20
-100.85
11
192.2
21
-100.85
0
LINE
8
BLACK
6
CONTINUOUS
10
192.2
20
-100.85
11
191.8
21
-100.85
0
LINE
8
BLACK
6
CONTINUOUS
10
191.8
20
-100.85
11
191.6
21
-100.85
0
LINE
8
BLACK
6
CONTINUOUS
10
191.6
20
-100.85
11
191.6
21
-100.863
0
LINE
8
BLACK
6
CONTINUOUS
10
191.6
20
-100.863
11
191.6
21
-119.501
0
LINE
8
BLACK
6
CONTINUOUS
10
191.6
20
-119.501
11
191.587
21
-119.55
0
LINE
8
BLACK
6
CONTINUOUS
10
191.587
20
-119.55
11
191.55
21
-119.587
0
LINE
8
BLACK
6
CONTINUOUS
10
191.55
20
-119.587
11
191.501
21
-119.6
0
LINE
8
BLACK
6
CONTINUOUS
10
191.501
20
-119.6
11
140.499
21
-119.6
0
LINE
8
BLACK
6
CONTINUOUS
10
140.499
20
-119.6
11
140.45
21
-119.587
0
LINE
8
BLACK
6
CONTINUOUS
10
140.45
20
-119.587
11
140.413
21
-119.55
0
LINE
8
BLACK
6
CONTINUOUS
10
140.413
20
-119.55
11
140.4
21
-119.501
0
LINE
8
BLACK
6
CONTINUOUS
10
140.4
20
-119.501
11
140.4
21
-70.499
0
LINE
8
BLACK
6
CONTINUOUS
10
140.4
20
-70.499
11
140.413
21
-70.4495
0
LINE
8
BLACK
6
CONTINUOUS
10
140.413
20
-70.4495
11
140.45
21
-70.4133
0
LINE
8
BLACK
6
CONTINUOUS
10
140.45
20
-70.4133
11
140.499
21
-70.4
0
LINE
8
BLACK
6
CONTINUOUS
10
140.499
20
-70.4
11
191.501
21
-70.4
0
LINE
8
BLACK
6
CONTINUOUS
10
191.501
20
-70.4
11
191.55
21
-70.4133
0
LINE
8
BLACK
6
CONTINUOUS
10
191.55
20
-70.4133
11
191.587
21
-70.4495
0
LINE
8
BLACK
6
CONTINUOUS
10
191.587
20
-70.4495
11
191.6
21
-70.499
0
LINE
8
BLACK
6
CONTINUOUS
10
191.6
20
-70.499
11
191.6
21
-95.131
0
LINE
8
BLACK
6
CONTINUOUS
10
191.6
20
-95.131
11
191.587
21
-95.1805
0
LINE
8
BLACK
6
CONTINUOUS
10
191.587
20
-95.1805
11
191.55
21
-95.2167
0
LINE
8
BLACK
6
CONTINUOUS
10
191.55
20
-95.2167
11
191.501
21
-95.23
0
LINE
8
BLACK
6
CONTINUOUS
10
191.501
20
-95.23
11
179.94
21
-95.23
0
LINE
8
BLACK
6
CONTINUOUS
10
179.94
20
-95.23
11
179.94
21
-95.55
0
LINE
8
BLACK
6
CONTINUOUS
10
179.94
20
-95.55
11
179.94
21
-96.85
0
LINE
8
BLACK
6
CONTINUOUS
10
179.94
20
-96.85
11
179.94
21
-97.17
0
LINE
8
BLACK
6
CONTINUOUS
10
179.94
20
-97.17
11
191.501
21
-97.17
0
LINE
8
BLACK
6
CONTINUOUS
10
191.501
20
-97.17
11
191.55
21
-97.1833
0
LINE
8
BLACK
6
CONTINUOUS
10
191.55
20
-97.1833
11
191.587
21
-97.2195
0
LINE
8
BLACK
6
CONTINUOUS
10
191.587
20
-97.2195
11
191.6
21
-97.269
0
LINE
8
BLACK
6
CONTINUOUS
10
191.6
20
-97.269
11
191.6
21
-99.55
0
LINE
8
BLACK
6
CONTINUOUS
10
191.6
20
-99.55
11
192.55
21
-99.55
0
LINE
8
BLACK
6
CONTINUOUS
10
192.55
20
-99.55
11
193.5
21
-99.55
0
LINE
8
BLACK
6
CONTINUOUS
10
193.5
20
-99.55
11
196.6
21
-99.55
0
LINE
8
BLACK
6
CONTINUOUS
10
196.6
20
-99.55
11
196.6
21
-96.85
0
LINE
8
BLACK
6
CONTINUOUS
10
196.6
20
-96.85
11
192.9
21
-96.85
0
LINE
8
BLACK
6
CONTINUOUS
10
192.9
20
-96.85
11
191.6
21
-96.85
0
LINE
8
BLACK
6
CONTINUOUS
10
191.6
20
-96.85
11
180.25
21
-96.85
0
CIRCLE
8
BLACK
10
147.7
20
-97.5
40
0.15
0
CIRCLE
8
BLACK
10
149.2
20
-97.5
40
0.15
0
CIRCLE
8
BLACK
10
150.7
20
-97.5
40
0.15
0
CIRCLE
8
BLACK
10
152.2
20
-97.5
40
0.15
0
CIRCLE
8
BLACK
10
153.7
20
-97.5
40
0.15
0
CIRCLE
8
BLACK
10
155.2
20
-97.5
40
0.15
0
CIRCLE
8
BLACK
10
156.7
20
-97.5
40
0.15
0
CIRCLE
8
BLACK
10
158.2
20
-97.5
40
0.15
0
CIRCLE
8
BLACK
10
159.7
20
-97.5
40
0.15
0
CIRCLE
8
BLACK
10
161.2
20
-97.5
40
0.15
0
CIRCLE
8
BLACK
10
162.7
20
-97.5
40
0.15
0
CIRCLE
8
BLACK
10
164.2
20
-97.5
40
0.15
0
CIRCLE
8
BLACK
10
165.7
20
-97.5
40
0.15
0
CIRCLE
8
BLACK
10
167.2
20
-97.5
40
0.15
0
CIRCLE
8
BLACK
10
168.7
20
-97.5
40
0.15
0
CIRCLE
8
BLACK
10
170.2
20
-97.5
40
0.15
0
CIRCLE
8
BLACK
10
171.7
20
-97.5
40
0.15
0
CIRCLE
8
BLACK
10
173.2
20
-97.5
40
0.15
0
CIRCLE
8
BLACK
10
174.7
20
-97.5
40
0.15
0
CIRCLE
8
BLACK
10
176.2
20
-97.5
40
0.15
0
CIRCLE
8
BLACK
10
177.7
20
-97.5
40
0.15
0
CIRCLE
8
BLACK
10
179.2
20
-97.5
40
0.15
0
CIRCLE
8
BLACK
10
180.7
20
-97.5
40
0.15
0
CIRCLE
8
BLACK
10
182.2
20
-97.5
40
0.15
0
CIRCLE
8
BLACK
10
183.7
20
-97.5
40
0.15
0
CIRCLE
8
BLACK
10
185.2
20
-97.5
40
0.15
0
CIRCLE
8
BLACK
10
186.7
20
-97.5
40
0.15
0
CIRCLE
8
BLACK
10
188.2
20
-97.5
40
0.15
0
CIRCLE
8
BLACK
10
189.7
20
-97.5
40
0.15
0
CIRCLE
8
BLACK
10
191.2
20
-97.5
40
0.15
0
CIRCLE
8
BLACK
10
147.7
20
-94.9
40
0.15
0
CIRCLE
8
BLACK
10
149.2
20
-94.9
40
0.15
0
CIRCLE
8
BLACK
10
150.7
20
-94.9
40
0.15
0
CIRCLE
8
BLACK
10
152.2
20
-94.9
40
0.15
0
CIRCLE
8
BLACK
10
153.7
20
-94.9
40
0.15
0
CIRCLE
8
BLACK
10
155.2
20
-94.9
40
0.15
0
CIRCLE
8
BLACK
10
156.7
20
-94.9
40
0.15
0
CIRCLE
8
BLACK
10
158.2
20
-94.9
40
0.15
0
CIRCLE
8
BLACK
10
159.7
20
-94.9
40
0.15
0
CIRCLE
8
BLACK
10
161.2
20
-94.9
40
0.15
0
CIRCLE
8
BLACK
10
162.7
20
-94.9
40
0.15
0
CIRCLE
8
BLACK
10
164.2
20
-94.9
40
0.15
0
CIRCLE
8
BLACK
10
165.7
20
-94.9
40
0.15
0
CIRCLE
8
BLACK
10
167.2
20
-94.9
40
0.15
0
CIRCLE
8
BLACK
10
168.7
20
-94.9
40
0.15
0
CIRCLE
8
BLACK
10
170.2
20
-94.9
40
0.15
0
CIRCLE
8
BLACK
10
171.7
20
-94.9
40
0.15
0
CIRCLE
8
BLACK
10
173.2
20
-94.9
40
0.15
0
CIRCLE
8
BLACK
10
174.7
20
-94.9
40
0.15
0
CIRCLE
8
BLACK
10
176.2
20
-94.9
40
0.15
0
CIRCLE
8
BLACK
10
177.7
20
-94.9
40
0.15
0
CIRCLE
8
BLACK
10
179.2
20
-94.9
40
0.15
0
CIRCLE
8
BLACK
10
180.7
20
-94.9
40
0.15
0
CIRCLE
8
BLACK
10
182.2
20
-94.9
40
0.15
0
CIRCLE
8
BLACK
10
183.7
20
-94.9
40
0.15
0
CIRCLE
8
BLACK
10
185.2
20
-94.9
40
0.15
0
CIRCLE
8
BLACK
10
186.7
20
-94.9
40
0.15
0
CIRCLE
8
BLACK
10
188.2
20
-94.9
40
0.15
0
CIRCLE
8
BLACK
10
189.7
20
-94.9
40
0.15
0
CIRCLE
8
BLACK
10
191.2
20
-94.9
40
0.15
0
CIRCLE
8
BLACK
10
191.2
20
-93.4
40
0.15
0
CIRCLE
8
BLACK
10
191.2
20
-91.9
40
0.15
0
CIRCLE
8
BLACK
10
191.2
20
-90.4
40
0.15
0
CIRCLE
8
BLACK
10
191.2
20
-88.9
40
0.15
0
CIRCLE
8
BLACK
10
191.2
20
-87.4
40
0.15
0
CIRCLE
8
BLACK
10
191.2
20
-85.9
40
0.15
0
CIRCLE
8
BLACK
10
191.2
20
-84.4
40
0.15
0
CIRCLE
8
BLACK
10
191.2
20
-82.9
40
0.15
0
CIRCLE
8
BLACK
10
191.2
20
-81.4
40
0.15
0
CIRCLE
8
BLACK
10
191.2
20
-79.9
40
0.15
0
CIRCLE
8
BLACK
10
191.2
20
-78.4
40
0.15
0
CIRCLE
8
BLACK
10
191.2
20
-76.9
40
0.15
0
CIRCLE
8
BLACK
10
191.2
20
-75.4
40
0.15
0
CIRCLE
8
BLACK
10
191.2
20
-73.9
40
0.15
0
CIRCLE
8
BLACK
10
191.2
20
-72.4
40
0.15
0
CIRCLE
8
BLACK
10
191.2
20
-70.9
40
0.15
0
CIRCLE
8
BLACK
10
191.2
20
-99
40
0.15
0
CIRCLE
8
BLACK
10
191.2
20
-100.5
40
0.15
0
CIRCLE
8
BLACK
10
191.2
20
-102
40
0.15
0
CIRCLE
8
BLACK
10
191.2
20
-103.5
40
0.15
0
CIRCLE
8
BLACK
10
191.2
20
-105
40
0.15
0
CIRCLE
8
BLACK
10
191.2
20
-106.5
40
0.15
0
CIRCLE
8
BLACK
10
191.2
20
-108
40
0.15
0
CIRCLE
8
BLACK
10
191.2
20
-109.5
40
0.15
0
CIRCLE
8
BLACK
10
191.2
20
-111
40
0.15
0
CIRCLE
8
BLACK
10
191.2
20
-112.5
40
0.15
0
CIRCLE
8
BLACK
10
191.2
20
-114
40
0.15
0
CIRCLE
8
BLACK
10
191.2
20
-115.5
40
0.15
0
CIRCLE
8
BLACK
10
191.2
20
-117
40
0.15
0
CIRCLE
8
BLACK
10
191.2
20
-118.5
40
0.15
0
CIRCLE
8
BLACK
10
147.5
20
-72.5
40
0.15
0
CIRCLE
8
BLACK
10
152.5
20
-72.5
40
0.15
0
CIRCLE
8
BLACK
10
157.5
20
-72.5
40
0.15
0
CIRCLE
8
BLACK
10
162.5
20
-72.5
40
0.15
0
CIRCLE
8
BLACK
10
167.5
20
-72.5
40
0.15
0
CIRCLE
8
BLACK
10
172.5
20
-72.5
40
0.15
0
CIRCLE
8
BLACK
10
177.5
20
-72.5
40
0.15
0
CIRCLE
8
BLACK
10
182.5
20
-72.5
40
0.15
0
CIRCLE
8
BLACK
10
187.5
20
-72.5
40
0.15
0
CIRCLE
8
BLACK
10
177.5
20
-77.5
40
0.15
0
CIRCLE
8
BLACK
10
177.5
20
-82.5
40
0.15
0
CIRCLE
8
BLACK
10
177.5
20
-87.5
40
0.15
0
CIRCLE
8
BLACK
10
177.5
20
-92.5
40
0.15
0
CIRCLE
8
BLACK
10
167.5
20
-77.5
40
0.15
0
CIRCLE
8
BLACK
10
167.5
20
-82.5
40
0.15
0
CIRCLE
8
BLACK
10
167.5
20
-87.5
40
0.15
0
CIRCLE
8
BLACK
10
167.5
20
-92.5
40
0.15
0
CIRCLE
8
BLACK
10
157.5
20
-77.5
40
0.15
0
CIRCLE
8
BLACK
10
157.5
20
-82.5
40
0.15
0
CIRCLE
8
BLACK
10
157.5
20
-87.5
40
0.15
0
CIRCLE
8
BLACK
10
157.5
20
-92.5
40
0.15
0
CIRCLE
8
BLACK
10
162.5
20
-77.5
40
0.15
0
CIRCLE
8
BLACK
10
162.5
20
-82.5
40
0.15
0
CIRCLE
8
BLACK
10
162.5
20
-87.5
40
0.15
0
CIRCLE
8
BLACK
10
162.5
20
-92.5
40
0.15
0
CIRCLE
8
BLACK
10
142.5
20
-77.5
40
0.15
0
CIRCLE
8
BLACK
10
142.5
20
-82.5
40
0.15
0
CIRCLE
8
BLACK
10
142.5
20
-87.5
40
0.15
0
CIRCLE
8
BLACK
10
142.5
20
-92.5
40
0.15
0
CIRCLE
8
BLACK
10
152.5
20
-77.5
40
0.15
0
CIRCLE
8
BLACK
10
152.5
20
-82.5
40
0.15
0
CIRCLE
8
BLACK
10
152.5
20
-87.5
40
0.15
0
CIRCLE
8
BLACK
10
152.5
20
-92.5
40
0.15
0
CIRCLE
8
BLACK
10
172.5
20
-77.5
40
0.15
0
CIRCLE
8
BLACK
10
172.5
20
-82.5
40
0.15
0
CIRCLE
8
BLACK
10
172.5
20
-87.5
40
0.15
0
CIRCLE
8
BLACK
10
172.5
20
-92.5
40
0.15
0
CIRCLE
8
BLACK
10
182.5
20
-77.5
40
0.15
0
CIRCLE
8
BLACK
10
182.5
20
-82.5
40
0.15
0
CIRCLE
8
BLACK
10
182.5
20
-87.5
40
0.15
0
CIRCLE
8
BLACK
10
182.5
20
-92.5
40
0.15
0
CIRCLE
8
BLACK
10
187.5
20
-77.5
40
0.15
0
CIRCLE
8
BLACK
10
187.5
20
-82.5
40
0.15
0
CIRCLE
8
BLACK
10
187.5
20
-87.5
40
0.15
0
CIRCLE
8
BLACK
10
187.5
20
-92.5
40
0.15
0
CIRCLE
8
BLACK
10
147.5
20
-77.5
40
0.15
0
CIRCLE
8
BLACK
10
147.5
20
-82.5
40
0.15
0
CIRCLE
8
BLACK
10
147.5
20
-87.5
40
0.15
0
CIRCLE
8
BLACK
10
147.5
20
-92.5
40
0.15
0
CIRCLE
8
BLACK
10
152.5
20
-114
40
0.15
0
CIRCLE
8
BLACK
10
182.5
20
-114
40
0.15
0
CIRCLE
8
BLACK
10
187.5
20
-119
40
0.15
0
CIRCLE
8
BLACK
10
147.5
20
-119
40
0.15
0
CIRCLE
8
BLACK
10
152.5
20
-104
40
0.15
0
CIRCLE
8
BLACK
10
157.5
20
-114
40
0.15
0
CIRCLE
8
BLACK
10
172.5
20
-109
40
0.15
0
CIRCLE
8
BLACK
10
162.5
20
-104
40
0.15
0
CIRCLE
8
BLACK
10
142.5
20
-119
40
0.15
0
CIRCLE
8
BLACK
10
167.5
20
-119
40
0.15
0
CIRCLE
8
BLACK
10
187.5
20
-109
40
0.15
0
CIRCLE
8
BLACK
10
147.5
20
-109
40
0.15
0
CIRCLE
8
BLACK
10
172.5
20
-104
40
0.15
0
CIRCLE
8
BLACK
10
172.5
20
-119
40
0.15
0
CIRCLE
8
BLACK
10
157.5
20
-109
40
0.15
0
CIRCLE
8
BLACK
10
187.5
20
-104
40
0.15
0
CIRCLE
8
BLACK
10
182.5
20
-104
40
0.15
0
CIRCLE
8
BLACK
10
142.5
20
-109
40
0.15
0
CIRCLE
8
BLACK
10
167.5
20
-104
40
0.15
0
CIRCLE
8
BLACK
10
182.5
20
-119
40
0.15
0
CIRCLE
8
BLACK
10
177.5
20
-109
40
0.15
0
CIRCLE
8
BLACK
10
147.5
20
-114
40
0.15
0
CIRCLE
8
BLACK
10
177.5
20
-119
40
0.15
0
CIRCLE
8
BLACK
10
177.5
20
-104
40
0.15
0
CIRCLE
8
BLACK
10
152.5
20
-119
40
0.15
0
CIRCLE
8
BLACK
10
172.5
20
-114
40
0.15
0
CIRCLE
8
BLACK
10
187.5
20
-114
40
0.15
0
CIRCLE
8
BLACK
10
157.5
20
-104
40
0.15
0
CIRCLE
8
BLACK
10
162.5
20
-119
40
0.15
0
CIRCLE
8
BLACK
10
147.5
20
-104
40
0.15
0
CIRCLE
8
BLACK
10
162.5
20
-114
40
0.15
0
CIRCLE
8
BLACK
10
182.5
20
-109
40
0.15
0
CIRCLE
8
BLACK
10
142.5
20
-104
40
0.15
0
CIRCLE
8
BLACK
10
167.5
20
-114
40
0.15
0
CIRCLE
8
BLACK
10
177.5
20
-114
40
0.15
0
CIRCLE
8
BLACK
10
167.5
20
-109
40
0.15
0
CIRCLE
8
BLACK
10
157.5
20
-119
40
0.15
0
CIRCLE
8
BLACK
10
162.5
20
-109
40
0.15
0
CIRCLE
8
BLACK
10
142.5
20
-114
40
0.15
0
CIRCLE
8
BLACK
10
152.5
20
-109
40
0.15
0
CIRCLE
8
BLACK
10
177.5
20
-99
40
0.15
0
CIRCLE
8
BLACK
10
167.5
20
-99
40
0.15
0
CIRCLE
8
BLACK
10
157.5
20
-99
40
0.15
0
CIRCLE
8
BLACK
10
162.5
20
-99
40
0.15
0
CIRCLE
8
BLACK
10
142.5
20
-99
40
0.15
0
CIRCLE
8
BLACK
10
152.5
20
-99
40
0.15
0
CIRCLE
8
BLACK
10
172.5
20
-99
40
0.15
0
CIRCLE
8
BLACK
10
182.5
20
-99
40
0.15
0
CIRCLE
8
BLACK
10
187.5
20
-99
40
0.15
0
CIRCLE
8
BLACK
10
147.5
20
-99
40
0.15
0
CIRCLE
8
BLACK
10
178.2
20
-95.7
40
0.15
0
CIRCLE
8
BLACK
10
178.2
20
-96.6
40
0.15
0
CIRCLE
8
BLACK
10
146.2
20
-97.5
40
0.15
0
CIRCLE
8
BLACK
10
146.2
20
-94.9
40
0.15
0
CIRCLE
8
BLACK
10
142.5
20
-72.5
40
0.15
  0
ENDSEC
  0
EOF
